<?xml version="1.0" encoding="utf-8"?>
<!-- Generator: Adobe Illustrator 22.0.1, SVG Export Plug-In . SVG Version: 6.00 Build 0)  -->
<svg version="1.1" id="Слой_1" xmlns="http://www.w3.org/2000/svg" xmlns:xlink="http://www.w3.org/1999/xlink" x="0px" y="0px"
	 viewBox="0 0 512 512" style="enable-background:new 0 0 512 512;" xml:space="preserve">
<style type="text/css">
	.st0{fill:#4680C2;stroke:#4680C2;}
	.st1{fill:#FFFFFF;}
</style>
<g id="surface1">
	<path class="st0" d="M262.7070312,0C124.8007812,0,12.4804688,112.3203125,12.4804688,250.2265625
		c0,31.203125,5.7734375,61.7773438,17.1601562,90.9492188C40.09375,367.6992188,54.7578125,392.34375,72.2304688,412.46875
		c4.2109375,4.9921875,4.0546875,12.3242188-0.625,17.0039062L0,513.5800781l261.6171875-12.0332031l10.7617188-1.2460938
		c0.3125,0,0.625,0,0.78125,0c64.2734375-2.8085938,124.4882812-30.265625,169.2617188-77.2226562
		C487.3515625,375.9648438,512,314.34375,512,249.4492188c0-66.7695312-25.8984375-129.484375-72.8554688-176.4414062
		C392.1914062,25.8945312,329.4765625,0,262.7070312,0z"/>
</g>
<path class="st1" d="M421.9424133,164.9948425c2.5805359-8.110199,0-14.0085449-11.4280396-14.0085449h-37.6073303
	c-9.5848389,0-14.0085449,5.1610413-16.5890503,10.6907196c0,0-19.5382385,47.1866455-46.8179932,77.7842407
	c-8.8475037,8.8474884-12.9026184,11.7966614-17.6950378,11.7966614c-2.5805054,0-5.8983459-2.949173-5.8983459-11.0593719
	V164.985733c0-9.5785522-2.9570923-13.9994354-11.0891418-13.9994354h-59.8813477
	c-5.9142303,0-9.610611,4.4208527-9.610611,8.8417511c0,9.2101288,13.6766052,11.4205627,15.1551819,37.2089844v55.9976807
	c0,12.1573944-2.2178345,14.3677826-7.0230865,14.3677826c-12.9373474,0-44.3565674-47.5243225-63.2081146-101.6800079
	c-3.6963654-10.6837769-7.392746-14.7362213-17.0033417-14.7362213H94.803833
	c-11.0891418,0-12.9373322,5.1576843-12.9373322,10.6837769c0,9.9469452,12.9373322,60.0501709,60.2510071,126.3632507
	c31.41922,45.3139343,76.1454468,69.6286621,116.4359589,69.6286621c24.3961487,0,27.3532104-5.526062,27.3532104-14.7362366
	v-34.2617493c0-11.0521851,2.217865-12.8942261,9.9802246-12.8942261c5.5445557,0,15.5247803,2.9472961,38.0727234,24.6832275
	c25.8746338,25.7883911,30.3103027,37.5773621,44.7262268,37.5773621h37.3582458
	c11.0594177,0,16.2204285-5.5296631,13.2712708-16.2203674c-3.3177795-10.6907043-15.8517761-26.1738892-32.0721436-44.6061707
	c-8.8474731-10.3220825-22.1187439-21.7500916-26.1738892-27.2797852c-5.5296631-7.3728943-4.0551147-10.3220825,0-16.9577026
	c-0.3686523,0.0001068,46.0807495-65.6188507,50.8730774-87.7375946"/>
</svg>
