<?xml version="1.0" standalone="no"?>
<!DOCTYPE svg PUBLIC "-//W3C//DTD SVG 20010904//EN"
 "http://www.w3.org/TR/2001/REC-SVG-20010904/DTD/svg10.dtd">
<svg version="1.0" xmlns="http://www.w3.org/2000/svg"
 width="700.000000pt" height="700.000000pt" viewBox="0 0 700.000000 700.000000"
 preserveAspectRatio="xMidYMid meet">
<metadata>
Created by potrace 1.11, written by Peter Selinger 2001-2013
</metadata>
<g transform="translate(0.000000,700.000000) scale(0.100000,-0.100000)"
fill="#000000" stroke="none">
<path d="M3250 6990 c-30 -4 -80 -11 -110 -14 -260 -33 -625 -128 -797 -207
-24 -10 -47 -19 -53 -19 -6 0 -18 -4 -28 -10 -9 -5 -69 -34 -133 -64 -279
-129 -612 -351 -828 -550 -92 -85 -256 -254 -320 -331 -189 -224 -339 -451
-455 -690 -84 -172 -114 -241 -155 -358 -92 -259 -150 -499 -177 -727 -3 -30
-8 -58 -10 -61 -1 -3 -6 -66 -10 -140 -14 -251 -7 -489 20 -689 12 -91 37
-238 46 -265 5 -16 11 -43 14 -60 3 -16 10 -48 16 -70 6 -22 13 -50 15 -62 14
-62 109 -331 154 -438 58 -134 166 -341 256 -489 61 -99 203 -291 306 -414 6
-7 13 -40 16 -72 5 -54 3 -63 -23 -97 -33 -44 -232 -283 -248 -298 -6 -5 -56
-64 -111 -130 -55 -66 -102 -122 -106 -125 -3 -3 -110 -129 -238 -280 -129
-151 -246 -288 -260 -304 l-26 -28 460 6 c253 3 472 8 486 10 14 2 107 7 205
11 98 4 199 9 224 10 25 1 120 5 211 9 91 4 194 9 230 11 35 2 132 6 214 10
83 4 182 9 220 10 39 2 133 7 210 10 77 3 174 8 215 10 41 2 138 7 215 10 77
3 181 8 230 10 50 2 144 7 210 9 168 8 301 16 327 21 13 3 59 7 103 10 86 5
185 14 225 20 14 2 50 7 80 10 30 4 64 9 75 11 11 2 34 7 50 9 64 11 221 47
265 59 461 138 763 280 1095 517 231 165 482 396 650 600 277 334 491 718 624
1117 38 113 77 253 87 312 3 14 11 50 19 80 7 30 17 78 21 105 4 28 8 55 9 60
1 6 5 34 9 63 3 28 9 76 14 105 16 113 7 713 -12 827 -2 14 -8 48 -12 75 -4
28 -8 55 -10 60 -1 6 -4 27 -8 47 -3 21 -11 59 -17 85 -6 27 -13 59 -15 73
-10 52 -88 309 -121 395 -70 188 -176 409 -266 555 -22 36 -49 81 -60 100 -12
19 -24 37 -27 40 -3 3 -25 34 -50 70 -275 402 -690 777 -1135 1027 -358 202
-795 346 -1205 398 -30 4 -64 10 -75 12 -33 9 -665 11 -725 3z"/>
</g>
</svg>
